<svg width="16" height="17" viewBox="0 0 16 17" fill="none" xmlns="http://www.w3.org/2000/svg">
<path d="M4.44444 10.3567H12.4444C12.9333 10.3567 13.3333 10.7802 13.3333 11.2978C13.3333 11.8155 12.9333 12.239 12.4444 12.239H3.55556C3.06667 12.239 2.66667 11.8155 2.66667 11.2978V1.88608H0.888889C0.4 1.88608 0 1.46255 0 0.9449C0 0.427253 0.4 0.00372314 0.888889 0.00372314H3.55556C4.04444 0.00372314 4.44444 0.427253 4.44444 0.9449V2.82725H16L12.4444 9.41549H4.44444V10.3567ZM4 13.1802C4.73778 13.1802 5.33333 13.8108 5.33333 14.592C5.33333 15.3731 4.73778 16.0037 4 16.0037C3.26222 16.0037 2.66667 15.3731 2.66667 14.592C2.66667 13.8108 3.26222 13.1802 4 13.1802ZM12 13.1802C12.7378 13.1802 13.3333 13.8108 13.3333 14.592C13.3333 15.3731 12.7378 16.0037 12 16.0037C11.2622 16.0037 10.6667 15.3731 10.6667 14.592C10.6667 13.8108 11.2622 13.1802 12 13.1802Z" fill="#10AB83"/>
</svg>
