<svg width="16" height="17" viewBox="0 0 16 17" fill="none" xmlns="http://www.w3.org/2000/svg">
<path d="M1.77778 16.0037H14.2222C14.6937 16.0037 15.1459 15.8351 15.4793 15.5351C15.8127 15.235 16 14.828 16 14.4037V5.60348C16 5.39131 15.9064 5.18782 15.7397 5.03779C15.573 4.88775 15.3469 4.80347 15.1111 4.80347H12.4444V4.18185C12.4444 2.0946 10.7529 0.225759 8.44444 0.0233547C7.82656 -0.0319168 7.20265 0.0298356 6.61288 0.204639C6.0231 0.379443 5.48051 0.663425 5.02002 1.03832C4.55952 1.41321 4.19132 1.87071 3.9391 2.38138C3.68688 2.89206 3.55623 3.44459 3.55556 4.00345V4.80347H0.888889C0.653141 4.80347 0.427048 4.88775 0.260349 5.03779C0.0936505 5.18782 0 5.39131 0 5.60348V14.4037C0 14.828 0.187301 15.235 0.520699 15.5351C0.854097 15.8351 1.30628 16.0037 1.77778 16.0037ZM12.4444 6.4035V8.00354H10.6667V6.4035H12.4444ZM5.33333 4.00345C5.33333 2.68022 6.52978 1.60339 8 1.60339C9.47022 1.60339 10.6667 2.68022 10.6667 4.00345V4.80347H5.33333V4.00345ZM3.55556 6.4035H5.33333V8.00354H3.55556V6.4035Z" fill="black" fill-opacity="0.6"/>
</svg>
